ffmpeg started on 2016-11-27 at 12:57:40
Report written to "Output/NVENCh264/results/ffmpeg/crowd_run_2160p50llhq11000k.log"
Command line:
Tools/ffmpeg/ffmpeg -benchmark -y -i Input/y4m/crowd_run_2160p50.y4m -c:v h264_nvenc -preset llhq -b:v 11000k -an Output/NVENCh264/encoded/crowd_run_2160p50llhq11000k.mkv
ffmpeg version N-82227-gdb23fde Copyright (c) 2000-2016 the FFmpeg developers
  built with gcc 5.4.0 (Ubuntu 5.4.0-6ubuntu1~16.04.2) 20160609
  configuration: --prefix=/home/jaroslav/ffmpeg_build --pkg-config-flags=--static --extra-cflags=-I/home/jaroslav/ffmpeg_build/include --extra-ldflags=-L/home/jaroslav/ffmpeg_build/lib --bindir=/home/jaroslav/bin --enable-gpl --enable-libass --enable-libfdk-aac --enable-libfreetype --enable-libmp3lame --enable-libopus --enable-libtheora --enable-libvorbis --enable-libvpx --enable-libx264 --enable-libx265 --enable-nvenc --enable-libmfx --enable-libxvid --enable-libgsm --enable-libopencore-amrnb --enable-version3 --enable-nonfree
  libavutil      55. 35.100 / 55. 35.100
  libavcodec     57. 66.101 / 57. 66.101
  libavformat    57. 57.100 / 57. 57.100
  libavdevice    57.  2.100 / 57.  2.100
  libavfilter     6. 66.100 /  6. 66.100
  libswscale      4.  3.100 /  4.  3.100
  libswresample   2.  4.100 /  2.  4.100
  libpostproc    54.  2.100 / 54.  2.100
Input #0, yuv4mpegpipe, from 'Input/y4m/crowd_run_2160p50.y4m':
  Duration: 00:00:10.00, start: 0.000000, bitrate: 4976642 kb/s
    Stream #0:0: Video: rawvideo (I420 / 0x30323449), yuv420p(progressive), 3840x2160, SAR 1:1 DAR 16:9, 50 fps, 50 tbr, 50 tbn, 50 tbc
[h264_nvenc @ 0x35161c0] The variable bitrate rate-control requires the 'qmin' and/or 'qmax' option set.
Output #0, matroska, to 'Output/NVENCh264/encoded/crowd_run_2160p50llhq11000k.mkv':
  Metadata:
    encoder         : Lavf57.57.100
    Stream #0:0: Video: h264 (h264_nvenc) (Main) (H264 / 0x34363248), yuv420p, 3840x2160 [SAR 1:1 DAR 16:9], q=-1--1, 11000 kb/s, 50 fps, 1k tbn, 50 tbc
    Metadata:
      encoder         : Lavc57.66.101 h264_nvenc
    Side data:
      cpb: bitrate max/min/avg: 0/0/11000000 buffer size: 22000000 vbv_delay: -1
Stream mapping:
  Stream #0:0 -> #0:0 (rawvideo (native) -> h264 (h264_nvenc))
Press [q] to stop, [?] for help
frame=   12 fps=0.0 q=0.0 size=       0kB time=00:00:00.00 bitrate=N/A speed=   0x    frame=   23 fps= 22 q=0.0 size=       0kB time=00:00:00.00 bitrate=N/A speed=   0x    frame=   38 fps= 25 q=44.0 size=       1kB time=00:00:00.14 bitrate=  42.4kbits/s speed=0.091x    frame=   56 fps= 27 q=42.0 size=       1kB time=00:00:00.50 bitrate=  11.9kbits/s speed=0.241x    frame=   74 fps= 29 q=42.0 size=       1kB time=00:00:00.86 bitrate=   7.0kbits/s speed=0.332x    frame=   92 fps= 30 q=43.0 size=       1kB time=00:00:01.22 bitrate=   4.9kbits/s speed=0.392x    frame=  110 fps= 30 q=42.0 size=       1kB time=00:00:01.58 bitrate=   3.8kbits/s speed=0.435x    frame=  122 fps= 23 q=42.0 size=       1kB time=00:00:01.82 bitrate=   3.3kbits/s speed=0.336x    frame=  123 fps= 13 q=42.0 size=       1kB time=00:00:01.84 bitrate=   3.3kbits/s speed=0.202x    frame=  136 fps= 14 q=43.0 size=       1kB time=00:00:02.10 bitrate=   2.8kbits/s speed=0.218x    frame=  153 fps= 15 q=43.0 size=       1kB time=00:00:02.44 bitrate=   2.5kbits/s speed=0.241x    frame=  170 fps= 16 q=42.0 size=       1kB time=00:00:02.78 bitrate=   2.2kbits/s speed=0.261x    frame=  187 fps= 17 q=43.0 size=       1kB time=00:00:03.12 bitrate=   1.9kbits/s speed=0.28x    frame=  204 fps= 17 q=43.0 size=       1kB time=00:00:03.46 bitrate=   1.7kbits/s speed=0.297x    frame=  221 fps= 18 q=42.0 size=       1kB time=00:00:03.80 bitrate=   1.6kbits/s speed=0.312x    frame=  235 fps= 19 q=42.0 size=    5130kB time=00:00:04.08 bitrate=10298.3kbits/s speed=0.321x    frame=  253 fps= 19 q=42.0 size=    5130kB time=00:00:04.44 bitrate=9463.5kbits/s speed=0.336x    frame=  271 fps= 20 q=42.0 size=    5130kB time=00:00:04.80 bitrate=8753.9kbits/s speed=0.349x    frame=  288 fps= 20 q=43.0 size=    6691kB time=00:00:05.14 bitrate=10662.5kbits/s speed=0.361x    frame=  306 fps= 21 q=42.0 size=    6691kB time=00:00:05.50 bitrate=9964.7kbits/s speed=0.372x    frame=  324 fps= 21 q=43.0 size=    6691kB time=00:00:05.86 bitrate=9352.7kbits/s speed=0.383x    frame=  342 fps= 22 q=42.0 size=    6691kB time=00:00:06.22 bitrate=8811.4kbits/s speed=0.393x    frame=  360 fps= 22 q=42.0 size=    6691kB time=00:00:06.58 bitrate=8329.4kbits/s speed=0.403x    frame=  378 fps= 22 q=42.0 size=    6691kB time=00:00:06.94 bitrate=7897.4kbits/s speed=0.412x    frame=  396 fps= 23 q=43.0 size=    6691kB time=00:00:07.30 bitrate=7508.0kbits/s speed=0.42x    frame=  414 fps= 23 q=42.0 size=    6691kB time=00:00:07.66 bitrate=7155.2kbits/s speed=0.429x    frame=  432 fps= 23 q=42.0 size=    6691kB time=00:00:08.02 bitrate=6834.1kbits/s speed=0.436x    frame=  450 fps= 24 q=44.0 size=    6691kB time=00:00:08.38 bitrate=6540.5kbits/s speed=0.443x    frame=  468 fps= 24 q=42.0 size=    6691kB time=00:00:08.74 bitrate=6271.1kbits/s speed=0.45x    frame=  485 fps= 24 q=42.0 size=   11823kB time=00:00:09.08 bitrate=10665.2kbits/s speed=0.456x    frame=  500 fps= 25 q=42.0 Lsize=   13419kB time=00:00:09.98 bitrate=11014.1kbits/s speed=0.49x    
video:13415kB audio:0kB subtitle:0kB other streams:0kB global headers:0kB muxing overhead: 0.035474%
bench: utime=1.160s
bench: maxrss=1408664kB
